<svg version="1.1" xmlns="http://www.w3.org/2000/svg" xmlns:xlink="http://www.w3.org/1999/xlink" width="512.000000pt" height="512.000000pt" viewBox="0,0,256,256"><g fill="#ffffff" fill-rule="nonzero" stroke="none" stroke-width="1" stroke-linecap="butt" stroke-linejoin="miter" stroke-miterlimit="10" stroke-dasharray="" stroke-dashoffset="0" font-family="none" font-weight="none" font-size="none" text-anchor="none" style="mix-blend-mode: normal"><g transform="translate(0,0.07823) scale(0.5,0.5)"><g transform="translate(0,512) scale(0.1,-0.1)"><path d="M2435,4739c-502,-63 -885,-475 -885,-954v-103l-187,-4c-179,-3 -191,-4 -245,-30c-116,-54 -197,-158 -218,-278c-17,-102 -192,-2609 -186,-2669c12,-122 114,-255 234,-303l57,-23h1555h1555l57,23c120,48 222,181 234,303c6,60 -169,2566 -186,2668c-6,35 -20,82 -32,104c-33,67 -112,141 -181,173c-60,28 -68,29 -249,32l-188,4v81c-1,242 -110,497 -290,678c-172,173 -368,269 -610,299c-96,11 -135,11 -235,-1zM2735,4404c291,-74 515,-357 515,-651v-73h-690h-690v73c0,41 9,108 19,149c96,374 472,597 846,502zM1555,2938l-7,-423l23,-34c34,-49 70,-72 121,-78c58,-7 118,23 149,74l24,38l3,423l3,422h689h689l3,-422l3,-423l24,-38c31,-51 91,-81 149,-74c50,5 87,29 120,77c22,33 22,34 22,456v424h155c149,0 155,-1 169,-22c11,-17 37,-340 106,-1317l92,-1295l-22,-18c-21,-17 -90,-18 -1510,-18c-1420,0 -1489,1 -1510,18l-22,18l92,1295c69,977 95,1300 106,1317c14,21 19,22 175,22h161z"></path></g></g></g></svg>